<svg width="27" height="28" viewBox="0 0 27 28" fill="none" xmlns="http://www.w3.org/2000/svg">
<path d="M12.4514 26.9139C12.1944 26.3575 11.8987 25.8312 11.5666 25.3391L11.3344 25.0267L11.0875 24.7569L10.8258 24.5295L10.5461 24.3398L10.1651 24.1534L9.74807 24.0226L9.27707 23.9408L8.76355 23.9097C6.77311 23.8814 4.70243 23.8781 2.56703 23.8999C2.23928 23.9031 1.96658 23.849 1.75097 23.738L1.46641 23.5548L1.25544 23.3406L1.08863 23.0642L0.979059 22.7241L0.921822 22.307L0.905467 21.7346C0.8758 13.9241 0.884 7.2282 0.929999 1.69937L0.952895 1.38701L1.01177 1.12044L1.11316 0.884944L1.24726 0.691967L1.39118 0.556229L1.55309 0.448293L1.9652 0.289659L2.50325 0.207889L3.26698 0.184994C9.83318 0.162456 16.7331 0.167921 23.9139 0.201348L24.7725 0.225879L25.3383 0.310919L25.7717 0.47773L25.9369 0.592208L26.0775 0.736123L26.1855 0.904569L26.264 1.10245L26.3081 1.31832L26.3245 1.56527C26.333 7.9991 26.3347 14.9514 26.3294 22.3708C26.3292 23.1647 26.0035 23.6631 25.3547 23.8623C25.1695 23.92 24.6602 23.9468 23.8305 23.9424C22.3686 23.9359 20.8794 23.9173 19.374 23.8868C18.4468 23.8677 17.7446 23.9414 17.2725 24.1076L17.2267 24.124L16.9013 24.2761L16.6086 24.4707L16.3305 24.7111L16.0574 25.0103L15.8056 25.3521L15.5586 25.7479L14.9895 26.8616L14.9748 26.8911C14.8659 27.1186 14.7167 27.3115 14.5283 27.4683C14.4641 27.5217 14.3892 27.5507 14.3043 27.555L13.6992 27.5632L13.238 27.5027L12.8831 27.3719L12.6149 27.1642L12.4514 26.9139ZM5.98992 9.98921C6.1837 9.85988 6.2822 9.91186 6.28429 10.1446L6.34153 16.9004C6.34153 16.9505 6.36667 16.9756 6.41676 16.9756L7.72344 16.9871C7.79531 16.9871 7.83138 16.951 7.83138 16.8791C7.82154 13.8614 7.82536 10.854 7.84283 7.87954L7.7954 7.68657L7.71199 7.60643L7.555 7.53284C7.13696 7.3781 6.80524 7.44478 6.56231 7.73236L6.46255 7.85174L6.1044 8.2655L5.8182 8.55169L5.53692 8.77411L5.24908 8.94746L4.95144 9.07339C4.80659 9.12352 4.74047 9.22572 4.75356 9.3792L4.82552 10.264C4.83646 10.399 4.907 10.4476 5.03648 10.4095C5.41763 10.2996 5.73623 10.1591 5.98992 9.98921ZM14.4368 11.8323L14.7671 11.5477L15.0304 11.2223L15.2348 10.8592L15.3706 10.4717L15.4409 10.0563L15.4393 9.63596L15.3689 9.22548L15.2283 8.83298L15.0271 8.48301L14.7638 8.17065L14.5463 7.98094L14.2977 7.8174L14.0377 7.6882L13.7499 7.58844C13.038 7.387 12.3472 7.44712 11.6827 7.76834L11.2739 8.01528L10.9435 8.33418L10.7326 8.65799L10.5756 9.05049L10.4758 9.51821L10.4251 10.0775C10.4197 10.1941 10.4749 10.2586 10.5903 10.2705L11.5208 10.3735C11.6471 10.3867 11.7198 10.3304 11.7383 10.2051L11.8119 9.79132L11.9035 9.48387L12.0327 9.23365L12.1946 9.0554L12.3418 8.95564L12.5201 8.87877L12.9436 8.81172C13.5001 8.79209 13.8225 9.03856 13.9085 9.54929C13.9815 9.98923 13.9727 10.4357 13.8824 10.8854C13.8725 10.9343 13.8463 10.9785 13.808 11.0108C13.7698 11.0432 13.7216 11.0618 13.6714 11.0637L12.8962 11.0931C12.7775 11.0975 12.712 11.1587 12.7 11.2763L12.5888 12.4014C12.5768 12.5179 12.6293 12.5808 12.7458 12.5895L13.4359 12.6762L13.6861 12.7481L13.8627 12.8381C13.8887 12.8559 13.9105 12.8792 13.9263 12.9064C13.9421 12.9335 13.9517 12.9638 13.9543 12.9951L13.9592 13.0572L14.0001 13.8815L13.9674 14.5111L13.8611 14.9674L13.781 15.1309L13.6779 15.2568L13.4506 15.3811L13.1186 15.44L12.7245 15.4236L12.4089 15.3402L12.229 15.2094L12.0785 14.9821L11.9657 14.6697L11.8757 14.2494C11.8561 14.1395 11.7905 14.0837 11.6795 14.0826L10.8323 14.0761C10.6428 14.075 10.5472 14.1696 10.5461 14.359C10.5397 15.5972 11.0747 16.4268 12.1472 16.8415L12.4432 16.9315L12.7605 16.9805L13.0908 16.992L13.4244 16.9642L13.7515 16.8971L14.0655 16.7925L14.3419 16.6567L14.5905 16.4883L14.9617 16.1334L15.2365 15.7474L15.4164 15.3615L15.5357 14.9183L15.5897 14.4424L15.5848 13.9044L15.485 13.2845L15.3918 13.0016L15.2675 12.7334L15.1302 12.5143L14.9634 12.318L14.7802 12.161L14.5725 12.0367L14.4564 11.9877C14.4415 11.9821 14.4284 11.9726 14.4186 11.9601C14.4087 11.9476 14.4025 11.9326 14.4005 11.9167C14.3985 11.9008 14.4008 11.8845 14.4072 11.8697C14.4135 11.8548 14.4238 11.8419 14.4368 11.8323ZM20.8197 12.6304C20.7642 12.6287 20.7114 12.6057 20.6724 12.5661C20.6334 12.5265 20.6112 12.4733 20.6104 12.4178L20.5728 10.1609C20.5724 10.132 20.5661 10.1035 20.5545 10.077C20.5428 10.0505 20.526 10.0267 20.5049 10.0068C20.4839 9.98701 20.4591 9.97161 20.432 9.96156C20.4048 9.95151 20.376 9.94701 20.3471 9.94832L19.5065 9.99084C19.4515 9.99376 19.3997 10.0176 19.3618 10.0574C19.3238 10.0972 19.3024 10.15 19.3021 10.2051L19.2939 12.3802C19.2935 12.4352 19.2722 12.488 19.2342 12.5279C19.1962 12.5677 19.1444 12.5915 19.0895 12.5944L17.194 12.6876C17.1428 12.6904 17.0943 12.7114 17.0571 12.7468C17.02 12.7821 16.9966 12.8296 16.9912 12.8806L16.8931 13.7653C16.8899 13.795 16.893 13.825 16.902 13.8535C16.911 13.8819 16.9258 13.9082 16.9454 13.9306C16.9651 13.9531 16.9892 13.9712 17.0162 13.9838C17.0433 13.9965 17.0726 14.0034 17.1025 14.0041L19.0535 14.0483C19.1093 14.0495 19.1625 14.0724 19.2018 14.112C19.2412 14.1517 19.2636 14.205 19.2645 14.2609L19.3086 16.6289C19.309 16.6577 19.3152 16.6861 19.3267 16.7125C19.3383 16.7388 19.355 16.7626 19.3759 16.7824C19.3967 16.8022 19.4214 16.8176 19.4483 16.8278C19.4752 16.838 19.5039 16.8426 19.5327 16.8415L20.3226 16.8121C20.3778 16.81 20.4302 16.7868 20.4688 16.7472C20.5075 16.7077 20.5294 16.6548 20.5302 16.5995L20.5613 14.2641C20.5622 14.2077 20.5851 14.1539 20.6251 14.1142C20.6651 14.0744 20.7192 14.052 20.7756 14.0515L22.707 14.0335C22.7639 14.0331 22.8184 14.0102 22.8586 13.9697C22.8987 13.9293 22.9212 13.8746 22.9212 13.8177L22.9179 12.8986C22.918 12.8424 22.8961 12.7885 22.857 12.7482C22.818 12.7079 22.7647 12.6844 22.7086 12.6827L20.8197 12.6304Z" fill="white"/>
</svg>
