<svg width="27" height="28" viewBox="0 0 27 28" fill="none" xmlns="http://www.w3.org/2000/svg">
<path d="M9.26565 24.232C8.84424 24.0414 8.2562 23.943 7.50597 23.9376C5.81561 23.9245 4.12146 23.9218 2.43623 23.9294C1.99304 23.9305 1.55474 23.8879 1.12464 23.8019L0.95456 23.7463L0.838447 23.6579L0.750135 23.4846L0.719063 23.2115C0.639521 18.804 0.632417 14.4134 0.697803 10.0727L0.719063 6.07087L0.728875 3.10916L0.763219 1.03384L0.804103 0.768905L0.903863 0.56121L1.11974 0.353514L1.43537 0.21287L1.86384 0.134371L2.43787 0.114746C9.96473 0.139452 17.6684 0.150382 25.4921 0.147454C25.9093 0.147606 26.1208 0.348718 26.125 0.749281L26.1332 7.09626L26.1299 12.4015C26.1531 15.6207 26.1345 19.0363 26.0743 22.6227L26.0726 22.8468L26.0416 23.4094L25.9876 23.5827L25.8944 23.7234L25.7799 23.8149L25.6229 23.8804L25.2075 23.9278C22.7785 23.9213 20.3324 23.9213 17.8875 23.9278L17.5326 23.9523L17.2022 24.021L16.8817 24.1338L16.5841 24.2859L16.2979 24.4789L16.0068 24.7242L15.4507 25.3359L14.7671 26.2844L14.216 27.0628C13.8076 27.5942 13.2857 27.8598 12.6542 27.8576L12.5217 27.8331L12.3876 27.7661L12.0916 27.4979L11.758 27.0432L11.3949 26.4087L11.3868 26.394C10.8183 25.3356 10.1094 24.6131 9.26565 24.232ZM9.88383 8.78563C9.89562 8.78519 9.90733 8.78765 9.91794 8.7928C9.92855 8.79795 9.93774 8.80562 9.94468 8.81515C9.95163 8.82469 9.95612 8.83578 9.95778 8.84745C9.95943 8.85913 9.95819 8.87103 9.95416 8.88212L7.03661 16.7991C6.99197 16.9177 7.03354 16.9773 7.1609 16.9773L8.59514 16.9806C8.65741 16.9806 8.7181 16.9608 8.7686 16.9241C8.8191 16.8874 8.85683 16.8356 8.87643 16.7762C9.42596 15.0584 10.0555 13.2298 10.7604 11.3041L10.7702 11.2796L11.1954 10.0531L11.4358 9.14542L11.547 8.35061L11.5519 7.99737L11.5209 7.6572C11.4948 7.48728 11.3882 7.40148 11.202 7.40045C10.0098 7.38919 8.53091 7.41105 6.77658 7.46586C6.77005 7.46695 6.76568 7.47023 6.7635 7.47567C6.7172 7.60283 6.69916 8.02692 6.70953 8.74474C6.70953 8.76869 6.721 8.78127 6.74387 8.78236C7.75865 8.83033 8.80793 8.83143 9.88383 8.78563ZM17.1973 14.1007L19.2056 14.1252C19.4921 14.1295 19.6359 13.988 19.6357 13.7016L19.6341 13.0835C19.6341 12.7709 19.4778 12.6015 19.1664 12.5765C18.5577 12.5285 17.9123 12.5285 17.235 12.5765C17.2211 12.5774 17.2072 12.5755 17.1941 12.5709C17.181 12.5662 17.1691 12.559 17.1589 12.5497C17.1488 12.5403 17.1408 12.529 17.1353 12.5165C17.1298 12.5039 17.127 12.4904 17.127 12.4767L17.1139 10.3818C17.1117 10.0725 16.9549 9.91401 16.6446 9.90751L16.2063 9.8977C15.8906 9.89118 15.7299 10.0464 15.7255 10.3622L15.6944 12.4865C15.6933 12.5519 15.66 12.5841 15.5946 12.583C14.8064 12.5657 14.0774 12.5903 13.413 12.6566C13.1832 12.6806 13.0532 12.8074 13.0238 13.036C12.9912 13.2974 12.9824 13.5859 12.9976 13.8995C13.003 14.0237 13.068 14.0854 13.1922 14.0843L15.6715 14.0647C15.7292 14.0636 15.7582 14.0926 15.7582 14.1514L15.7696 16.5783C15.7707 16.7362 15.85 16.8154 16.0068 16.8154L16.8654 16.8187C17.0309 16.8187 17.1134 16.7361 17.1123 16.5718L17.1025 14.1955C17.1013 14.1312 17.133 14.0995 17.1973 14.1007Z" fill="white"/>
</svg>
