<svg width="30" height="32" viewBox="0 0 30 32" fill="none" xmlns="http://www.w3.org/2000/svg">
<path d="M27.919 0.562365C28.9785 0.936008 29.6141 1.5929 29.821 2.52811L29.8798 3.0171L29.8717 3.69088L29.8602 4.13898C29.8493 10.7566 29.8646 17.3944 29.906 24.0025C29.906 24.1354 29.8967 24.2704 29.8782 24.4065C29.8564 24.5644 29.8482 24.7278 29.8537 24.8955C29.8863 25.8788 29.5496 26.6478 28.8463 27.1965C28.6089 27.3815 28.305 27.505 27.937 27.5661C27.6397 27.6151 27.3468 27.6369 27.0604 27.6315C24.9129 27.5868 22.7308 27.5748 20.5303 27.5955C20.1458 27.5999 19.7813 27.6922 19.4395 27.8719C19.1989 27.9983 18.9836 28.2305 18.7951 28.5669C18.6207 28.8786 18.4491 29.1841 18.2816 29.4811C17.424 30.9966 16.1015 31.6338 14.3239 31.388C13.4714 31.2694 12.8063 30.8961 12.3336 30.271C11.9645 29.781 11.6109 29.1973 11.2755 28.5244C11.109 28.1879 10.903 27.9622 10.659 27.849C10.3846 27.7215 10.0316 27.6608 9.60253 27.6675C8.8632 27.6783 8.12652 27.6696 7.39801 27.6413C6.75995 27.6163 6.12164 27.619 5.48787 27.6495C4.87481 27.6778 4.24087 27.6816 3.59081 27.6609C3.06596 27.6435 2.62002 27.5282 2.25632 27.3158C1.80991 27.0546 1.48529 26.707 1.28489 26.2757C1.14784 25.9817 1.07188 25.6133 1.05757 25.1735C1.0456 24.7825 1.02428 24.3918 0.993794 24.0042L0.985617 23.6248L1.01178 23.1292L1.03795 22.3737L0.97744 19.7914L0.967628 16.254L0.959451 12.908L0.95618 8.37793L0.944732 3.52734C0.921929 2.15959 1.45531 1.22289 2.54088 0.72427C2.82181 0.595817 3.1366 0.516028 3.48287 0.485501C3.69541 0.466956 3.91782 0.44619 4.14848 0.423356C4.37171 0.401567 4.59195 0.39173 4.80754 0.393919L10.4758 0.392284L15.593 0.385742C19.0741 0.40748 22.6399 0.424968 26.264 0.438075C26.631 0.439172 27.0059 0.446823 27.3859 0.460971C27.5688 0.467501 27.747 0.501384 27.919 0.562365ZM11.2657 26.2316C12.1095 26.6127 12.8183 27.3352 13.3868 28.3936L13.395 28.4083L13.7613 29.0461L14.0917 29.4975L14.3877 29.7657L14.5218 29.8327L14.6543 29.8573C15.2858 29.8594 15.8077 29.5938 16.2161 29.0625L16.7672 28.284L17.4508 27.3355L18.0068 26.7238L18.2979 26.4785L18.5841 26.2855L18.8818 26.1335L19.2023 26.0206L19.5327 25.9519L19.8876 25.9274C22.3325 25.9209 24.7786 25.9209 27.2076 25.9274L27.623 25.88L27.78 25.8146L27.8945 25.723L27.9877 25.5823L28.0416 25.409L28.0727 24.8464L28.0744 24.6223C28.1346 21.036 28.1531 17.6203 28.13 14.4011L28.1332 9.09587L28.1251 2.74889C28.1209 2.34833 27.9094 2.14722 27.4922 2.14707C19.6685 2.14999 11.9648 2.13906 4.43794 2.11436L3.86392 2.13398L3.43544 2.21248L3.11981 2.35313L2.90394 2.56082L2.80418 2.76852L2.76329 3.03345L2.72895 5.10877L2.71914 8.07048L2.69788 12.0723C2.63249 16.413 2.6396 20.8036 2.71914 25.2111L2.75021 25.4842L2.83852 25.6576L2.95464 25.7459L3.12472 25.8015C3.55482 25.8875 3.99311 25.9301 4.43631 25.929C6.12154 25.9214 7.81568 25.9241 9.50604 25.9372C10.2563 25.9426 10.8443 26.041 11.2657 26.2316Z" fill="black"/>
</svg>
