<svg width="14" height="18" viewBox="0 0 14 18" fill="none" xmlns="http://www.w3.org/2000/svg">
<path d="M8.61588 0.755446L9.28149 1.00076L9.86533 1.3033L10.387 1.66963L10.8302 2.0932L11.1131 2.44154L11.3552 2.81768L11.5661 3.23471L11.7395 3.67954L11.8801 4.16852L11.9832 4.68367L12.0519 5.24134L12.0829 5.82518C12.1047 6.72317 12.1173 7.61232 12.1206 8.48597C12.1207 8.54576 12.1416 8.60363 12.1798 8.64961C12.2181 8.69558 12.2711 8.72678 12.3299 8.73783L12.8712 8.84413C12.9154 8.85298 12.9553 8.87655 12.9844 8.911C13.0136 8.94546 13.0301 8.98875 13.0315 9.03383C13.0968 11.7194 13.1093 14.4415 13.0691 17.1798C13.0658 17.3987 12.9631 17.5238 12.7616 17.5543C12.472 17.5978 12.2092 17.6207 11.975 17.6229C9.03759 17.6502 6.10616 17.6567 3.20272 17.6426L1.69488 17.5755L1.2059 17.5444C1.14097 17.5405 1.07976 17.5129 1.03392 17.4667C0.988078 17.4206 0.96081 17.3592 0.957314 17.2942L0.886993 14.8967L0.908254 11.5049L0.924609 10.2784C0.93016 9.83706 0.950379 9.3403 0.985118 8.79179C0.987094 8.76553 0.997467 8.7407 1.01462 8.72118C1.03178 8.70165 1.05476 8.68853 1.07997 8.68386L1.53134 8.60045C1.6239 8.58305 1.67309 8.52676 1.67853 8.43201C1.73726 7.33277 1.78426 6.18459 1.81917 4.99603L1.87804 4.42855L2.01705 3.88069L2.23947 3.33938L2.5322 2.82913L2.90835 2.33851L3.345 1.89532L3.83235 1.50773L4.36549 1.18065C5.73304 0.453267 7.15339 0.311177 8.61588 0.755446ZM3.85851 8.43855L9.96836 8.48107C9.98375 8.48128 9.99902 8.47844 10.0133 8.4727C10.0276 8.46697 10.0406 8.45845 10.0515 8.44764C10.0625 8.43684 10.0712 8.42397 10.0771 8.40977C10.0831 8.39558 10.0861 8.38034 10.0861 8.36495L10.1057 5.56515C10.1085 5.16354 10.0321 4.76532 9.88084 4.39321C9.72957 4.0211 9.50641 3.6824 9.2241 3.39644C8.94179 3.11049 8.60586 2.88288 8.23549 2.72661C7.86512 2.57035 7.46757 2.48848 7.06553 2.4857L6.84639 2.48406C6.03471 2.4784 5.254 2.79496 4.67592 3.36415C4.09784 3.93333 3.7697 4.70855 3.76366 5.51936L3.74403 8.3208C3.74382 8.33605 3.74661 8.35119 3.75224 8.36536C3.75788 8.37953 3.76625 8.39245 3.77688 8.40339C3.78751 8.41432 3.80019 8.42305 3.8142 8.42909C3.82821 8.43512 3.84327 8.43833 3.85851 8.43855ZM7.97317 12.9163L7.89631 12.6775L7.7753 12.4829L7.59376 12.3112L7.37789 12.1934L7.12277 12.1231L6.85947 12.1117L6.59944 12.1574L6.36067 12.2588L6.1677 12.4028L6.01724 12.5925L5.91912 12.8459L5.89786 13.1501L5.91094 13.2319L6.02705 13.4494L6.28054 13.6735C6.32842 13.7094 6.35247 13.7575 6.3525 13.8174L6.36558 15.0112C6.36558 15.0342 6.37471 15.0562 6.39097 15.0725C6.40722 15.0888 6.42927 15.0979 6.45225 15.0979L7.61012 15.1061C7.64061 15.1061 7.65591 15.0908 7.6559 15.0603L7.63302 13.7945C7.6319 13.7324 7.65703 13.6838 7.70824 13.6489C7.94778 13.4845 8.03631 13.2397 7.97317 12.9163Z" fill="white"/>
</svg>
