<svg width="18" height="18" viewBox="0 0 18 18" fill="none" xmlns="http://www.w3.org/2000/svg">
<path d="M8.83311 16.8434C8.82865 16.8399 8.82387 16.8369 8.81884 16.8343V14.3393L9.01036 14.4807C9.56053 14.8916 10.008 14.7845 10.6398 14.6062C11.4767 14.3704 12.2799 14.4352 13.0495 14.8007C13.2847 14.9124 13.4522 14.9761 13.5519 14.9917C14.4151 15.1277 15.1059 14.4056 14.9515 13.5207C14.9342 13.4209 14.8674 13.2392 14.7511 12.9759C14.4429 12.2778 14.3768 11.5415 14.5527 10.767C14.5695 10.6931 14.5869 10.6208 14.6038 10.5499C14.752 9.93158 14.8747 9.41926 14.4318 8.8522C14.4257 8.84441 14.4224 8.83471 14.4224 8.82472C14.4224 8.81473 14.4257 8.80504 14.4318 8.79724C14.7859 8.33348 14.8052 7.8972 14.6436 7.33657C14.4131 6.53616 14.3536 5.63269 14.6883 4.85083C14.7076 4.80555 14.7283 4.75913 14.7494 4.712C14.833 4.52458 14.9216 4.32582 14.9489 4.14248C15.1079 3.07343 14.1158 2.29019 13.1731 2.7828C12.4908 3.13915 11.7947 3.25756 11.0848 3.13801C10.9145 3.1092 10.7494 3.06486 10.5874 3.02137C10.0541 2.87817 9.55581 2.74436 9.02644 3.20603C9.0216 3.21022 9.01616 3.21353 9.01036 3.21585L8.81884 3.30883V0.802252C8.82637 0.805153 8.83442 0.806619 8.84259 0.806516C8.85659 0.806339 8.87014 0.801556 8.88115 0.792907C9.70225 0.155064 10.4071 0.33001 11.2916 0.549539C11.382 0.571967 11.4742 0.594861 11.5687 0.6174C12.6668 0.879516 13.7123 0.789312 14.7052 0.346786C15.1209 0.161148 15.3925 0.05689 15.52 0.0340121C16.9643 -0.228758 17.9477 1.07529 17.5388 2.41953C17.5035 2.53588 17.3862 2.80192 17.1868 3.21764C16.7133 4.20695 16.8339 5.66101 17.1496 6.70719C17.3918 7.50628 17.3604 8.13771 16.8427 8.80346C16.8341 8.81436 16.8294 8.82783 16.8294 8.8417C16.8294 8.85557 16.8341 8.86904 16.8427 8.87994C17.4094 9.59765 17.3682 10.2879 17.126 11.1262C16.7652 12.3803 16.7603 13.5745 17.3349 14.7668C17.6967 15.5198 17.8104 16.262 17.2466 16.9591C16.8361 17.4677 16.29 17.6906 15.6083 17.6278C15.2706 17.5968 14.9651 17.4538 14.6366 17.3C14.5597 17.264 14.4814 17.2274 14.4013 17.1915C13.362 16.7238 11.9844 16.8336 10.9078 17.1621C10.1381 17.3974 9.46356 17.3562 8.83311 16.8434Z" fill="white"/>
<path d="M8.80481 16.8434C8.80926 16.8399 8.81382 16.8369 8.81884 16.8343V14.3393L8.62756 14.4807C8.07739 14.8916 7.62997 14.7845 6.9981 14.6062C6.16123 14.3704 5.35799 14.4352 4.58838 14.8007C4.35322 14.9124 4.18575 14.9761 4.08599 14.9917C3.22285 15.1277 2.53206 14.4056 2.68639 13.5207C2.70376 13.4209 2.77056 13.2392 2.88681 12.9759C3.19501 12.2778 3.26115 11.5415 3.08522 10.767C3.06839 10.6931 3.05107 10.6208 3.03408 10.5499C2.88596 9.93158 2.76323 9.41926 3.20614 8.8522C3.21222 8.84441 3.21552 8.83471 3.21552 8.82472C3.21552 8.81473 3.21222 8.80504 3.20614 8.79724C2.85207 8.33348 2.83269 7.8972 2.99437 7.33657C3.22485 6.53616 3.28431 5.63269 2.94961 4.85083C2.93028 4.80555 2.90957 4.75913 2.88855 4.712C2.80495 4.52458 2.71628 4.32582 2.68906 4.14248C2.53006 3.07343 3.52214 2.29019 4.46478 2.7828C5.1471 3.13915 5.84323 3.25756 6.55316 3.13801C6.7234 3.1092 6.88855 3.06486 7.05049 3.02137C7.58378 2.87817 8.08211 2.74436 8.61148 3.20603C8.61632 3.21022 8.62176 3.21353 8.62756 3.21585L8.81884 3.30883V0.802252C8.81132 0.805153 8.8035 0.806619 8.79533 0.806516C8.78133 0.806339 8.76778 0.801556 8.75677 0.792907C7.93567 0.155064 7.2308 0.33001 6.3463 0.549539C6.25593 0.571967 6.16369 0.594861 6.06926 0.6174C4.97112 0.879516 3.9256 0.789312 2.93269 0.346786C2.51697 0.161148 2.24537 0.05689 2.11791 0.0340121C0.673658 -0.228758 -0.309766 1.07529 0.0990958 2.41953C0.134393 2.53588 0.251724 2.80192 0.451089 3.21764C0.924662 4.20695 0.804062 5.66101 0.488346 6.70719C0.246166 7.50628 0.277543 8.13771 0.795238 8.80346C0.803827 8.81436 0.808497 8.82783 0.808497 8.8417C0.808497 8.85557 0.803827 8.86904 0.795238 8.87994C0.228518 9.59765 0.269699 10.2879 0.511879 11.1262C0.872696 12.3803 0.877599 13.5745 0.303035 14.7668C-0.0587641 15.5198 -0.172499 16.262 0.39128 16.9591C0.801776 17.4677 1.3479 17.6906 2.02967 17.6278C2.36732 17.5968 2.67279 17.4538 3.00137 17.3C3.07823 17.264 3.15655 17.2274 3.23664 17.1915C4.27596 16.7238 5.65354 16.8336 6.73011 17.1621C7.49979 17.3974 8.17436 17.3562 8.80481 16.8434Z" fill="white"/>
<path d="M8.81896 3.84258C8.33526 3.48132 7.94191 3.5755 7.38638 3.73224C6.65064 3.93962 5.94444 3.88263 5.26782 3.56129C5.06108 3.46304 4.91385 3.40706 4.82614 3.39336C4.06729 3.27377 3.45998 3.90861 3.59566 4.6866C3.61093 4.77439 3.66966 4.93405 3.77186 5.1656C4.04282 5.7793 4.10097 6.42662 3.9463 7.10757C3.9315 7.17257 3.91627 7.23613 3.90134 7.29847C3.77113 7.84205 3.66322 8.29247 4.05262 8.79101C4.05795 8.79787 4.06086 8.80639 4.06086 8.81518C4.06086 8.82396 4.05795 8.83248 4.05262 8.83934C3.74131 9.24706 3.72428 9.63062 3.86642 10.1235C4.06905 10.8272 4.12134 11.6215 3.82707 12.3089C3.81006 12.3488 3.79184 12.3896 3.77334 12.4311C3.69985 12.5958 3.62194 12.7705 3.598 12.9317C3.45822 13.8715 4.33043 14.5601 5.15918 14.1271C5.75904 13.8138 6.37106 13.7097 6.99521 13.8148C7.14488 13.8401 7.2901 13.8791 7.43246 13.9173C7.90132 14.0432 8.33941 14.1609 8.80482 13.755C8.80907 13.7513 8.81386 13.7484 8.81896 13.7463V12.2111H5.60262C5.59016 12.2111 5.57821 12.206 5.56939 12.1969C5.56058 12.1878 5.55563 12.1756 5.55563 12.1627V5.464C5.55563 5.46074 5.55595 5.4575 5.55658 5.45435C5.55841 5.44513 5.56282 5.43658 5.56939 5.42983C5.57821 5.42077 5.59016 5.41568 5.60262 5.41568H8.81896V3.84258Z" fill="white"/>
<path d="M5.49966 5.1724H8.819V12.8293H5.49966V5.1724Z" fill="white"/>
</svg>
